<svg xmlns="http://www.w3.org/2000/svg" xmlns:xlink="http://www.w3.org/1999/xlink" width="500" zoomAndPan="magnify" viewBox="0 0 375 374.999991" height="500" preserveAspectRatio="xMidYMid meet" version="1.0"><defs><clipPath id="id1"><path d="M 46.644531 157 L 189 157 L 189 282.699219 L 46.644531 282.699219 Z M 46.644531 157 " clip-rule="nonzero"/></clipPath><clipPath id="id2"><path d="M 188 92.199219 L 330.144531 92.199219 L 330.144531 218 L 188 218 Z M 188 92.199219 " clip-rule="nonzero"/></clipPath><clipPath id="id3"><path d="M 0 42.425781 L 227.25 42.425781 L 227.25 169.925781 L 0 169.925781 Z M 0 42.425781 " clip-rule="nonzero"/></clipPath><clipPath id="id4"><path d="M 148.003906 205.265625 L 375 205.265625 L 375 332.765625 L 148.003906 332.765625 Z M 148.003906 205.265625 " clip-rule="nonzero"/></clipPath></defs><g clip-path="url(#id1)"><path fill="#c3ae99" d="M 142.105469 246.203125 L 142.105469 263.445312 L 63.957031 227.167969 L 63.957031 213.179688 L 142.105469 176.902344 L 142.105469 194.148438 L 83.003906 220.011719 L 83.003906 220.335938 Z M 188.515625 157.742188 L 57.828125 157.742188 C 51.660156 157.742188 46.65625 162.742188 46.65625 168.90625 L 46.65625 271.445312 C 46.65625 277.609375 51.660156 282.605469 57.828125 282.605469 L 152.238281 282.605469 L 188.515625 157.742188 " fill-opacity="1" fill-rule="nonzero"/></g><g clip-path="url(#id2)"><path fill="#6b6b6b" d="M 312.863281 162.179688 L 234.71875 197.96875 L 234.71875 180.722656 L 295.117188 154.859375 L 295.117188 154.53125 L 234.71875 128.664062 L 234.71875 111.425781 L 312.863281 147.210938 Z M 224.796875 92.265625 L 188.515625 217.125 L 318.992188 217.125 C 325.164062 217.125 330.164062 212.128906 330.164062 205.960938 L 330.164062 103.425781 C 330.164062 97.261719 325.164062 92.265625 318.992188 92.265625 L 224.796875 92.265625 " fill-opacity="1" fill-rule="nonzero"/></g><g clip-path="url(#id3)"><path fill="#fffefc" d="M 19.164062 169.945312 C 8.714844 169.945312 0.238281 161.472656 0.238281 151.019531 L 0.238281 119.539062 L 28.613281 119.539062 L 28.613281 141.578125 L 198.636719 141.578125 L 198.636719 42.410156 L 227.011719 42.410156 L 227.011719 151.019531 C 227.011719 161.472656 218.535156 169.945312 208.085938 169.945312 L 19.164062 169.945312 " fill-opacity="1" fill-rule="nonzero"/></g><g clip-path="url(#id4)"><path fill="#fffefc" d="M 167.148438 205.25 C 156.699219 205.25 148.230469 213.71875 148.230469 224.171875 L 148.230469 262.34375 C 148.230469 272.792969 156.699219 281.261719 167.148438 281.261719 L 346.667969 281.199219 L 346.667969 304.417969 L 148.453125 304.417969 L 148.453125 332.769531 L 356.109375 332.78125 C 366.554688 332.78125 375.023438 324.3125 375.023438 313.859375 L 375.023438 271.753906 C 375.023438 261.304688 366.554688 252.835938 356.109375 252.835938 L 176.585938 252.894531 L 176.585938 233.613281 L 374.800781 233.613281 L 374.914062 205.265625 L 167.148438 205.25 " fill-opacity="1" fill-rule="nonzero"/></g></svg>